<svg width="128" height="32" viewBox="0 0 128 32" fill="none" xmlns="http://www.w3.org/2000/svg">
<g filter="url(#filter0_d_0_567)">
<path d="M0 4C0 1.79086 1.79086 0 4 0H124C126.209 0 128 1.79086 128 4V26C128 28.2091 126.209 30 124 30H4C1.79086 30 0 28.2091 0 26V4Z" fill="#24B47E"/>
</g>
<path d="M22.1699 16.7617C22.1699 16.4297 22.0527 16.1758 21.8184 16C21.584 15.8203 21.1621 15.6328 20.5527 15.4375C19.9434 15.2383 19.4609 15.043 19.1055 14.8516C18.1367 14.3281 17.6523 13.623 17.6523 12.7363C17.6523 12.2754 17.7812 11.8652 18.0391 11.5059C18.3008 11.1426 18.6738 10.8594 19.1582 10.6562C19.6465 10.4531 20.1934 10.3516 20.7988 10.3516C21.4082 10.3516 21.9512 10.4629 22.4277 10.6855C22.9043 10.9043 23.2734 11.2148 23.5352 11.6172C23.8008 12.0195 23.9336 12.4766 23.9336 12.9883H22.1758C22.1758 12.5977 22.0527 12.2949 21.8066 12.0801C21.5605 11.8613 21.2148 11.752 20.7695 11.752C20.3398 11.752 20.0059 11.8438 19.7676 12.0273C19.5293 12.207 19.4102 12.4453 19.4102 12.7422C19.4102 13.0195 19.5488 13.252 19.8262 13.4395C20.1074 13.627 20.5195 13.8027 21.0625 13.9668C22.0625 14.2676 22.791 14.6406 23.248 15.0859C23.7051 15.5312 23.9336 16.0859 23.9336 16.75C23.9336 17.4883 23.6543 18.0684 23.0957 18.4902C22.5371 18.9082 21.7852 19.1172 20.8398 19.1172C20.1836 19.1172 19.5859 18.998 19.0469 18.7598C18.5078 18.5176 18.0957 18.1875 17.8105 17.7695C17.5293 17.3516 17.3887 16.8672 17.3887 16.3164H19.1523C19.1523 17.2578 19.7148 17.7285 20.8398 17.7285C21.2578 17.7285 21.584 17.6445 21.8184 17.4766C22.0527 17.3047 22.1699 17.0664 22.1699 16.7617ZM27.0449 11.1016V12.6602H28.1289V13.9023H27.0449V17.0664C27.0449 17.3008 27.0898 17.4688 27.1797 17.5703C27.2695 17.6719 27.4414 17.7227 27.6953 17.7227C27.8828 17.7227 28.0488 17.709 28.1934 17.6816V18.9648C27.8613 19.0664 27.5195 19.1172 27.168 19.1172C25.9805 19.1172 25.375 18.5176 25.3516 17.3184V13.9023H24.4258V12.6602H25.3516V11.1016H27.0449ZM32.7461 19C32.668 18.8477 32.6113 18.6582 32.5762 18.4316C32.166 18.8887 31.6328 19.1172 30.9766 19.1172C30.3555 19.1172 29.8398 18.9375 29.4297 18.5781C29.0234 18.2188 28.8203 17.7656 28.8203 17.2188C28.8203 16.5469 29.0684 16.0312 29.5645 15.6719C30.0645 15.3125 30.7852 15.1309 31.7266 15.127H32.5059V14.7637C32.5059 14.4707 32.4297 14.2363 32.2773 14.0605C32.1289 13.8848 31.8926 13.7969 31.5684 13.7969C31.2832 13.7969 31.0586 13.8652 30.8945 14.002C30.7344 14.1387 30.6543 14.3262 30.6543 14.5645H28.9609C28.9609 14.1973 29.0742 13.8574 29.3008 13.5449C29.5273 13.2324 29.8477 12.9883 30.2617 12.8125C30.6758 12.6328 31.1406 12.543 31.6562 12.543C32.4375 12.543 33.0566 12.7402 33.5137 13.1348C33.9746 13.5254 34.2051 14.0762 34.2051 14.7871V17.5352C34.209 18.1367 34.293 18.5918 34.457 18.9004V19H32.7461ZM31.3457 17.8223C31.5957 17.8223 31.8262 17.7676 32.0371 17.6582C32.248 17.5449 32.4043 17.3945 32.5059 17.207V16.1172H31.873C31.0254 16.1172 30.5742 16.4102 30.5195 16.9961L30.5137 17.0957C30.5137 17.3066 30.5879 17.4805 30.7363 17.6172C30.8848 17.7539 31.0879 17.8223 31.3457 17.8223ZM39.0684 14.248C38.8379 14.2168 38.6348 14.2012 38.459 14.2012C37.8184 14.2012 37.3984 14.418 37.1992 14.8516V19H35.5059V12.6602H37.1055L37.1523 13.416C37.4922 12.834 37.9629 12.543 38.5645 12.543C38.752 12.543 38.9277 12.5684 39.0918 12.6191L39.0684 14.248ZM42.209 11.1016V12.6602H43.293V13.9023H42.209V17.0664C42.209 17.3008 42.2539 17.4688 42.3438 17.5703C42.4336 17.6719 42.6055 17.7227 42.8594 17.7227C43.0469 17.7227 43.2129 17.709 43.3574 17.6816V18.9648C43.0254 19.0664 42.6836 19.1172 42.332 19.1172C41.1445 19.1172 40.5391 18.5176 40.5156 17.3184V13.9023H39.5898V12.6602H40.5156V11.1016H42.209ZM49.5918 16.6035L50.7637 12.6602H52.5801L50.0312 19.9844L49.8906 20.3184C49.5117 21.1465 48.8867 21.5605 48.0156 21.5605C47.7695 21.5605 47.5195 21.5234 47.2656 21.4492V20.166L47.5234 20.1719C47.8438 20.1719 48.082 20.123 48.2383 20.0254C48.3984 19.9277 48.5234 19.7656 48.6133 19.5391L48.8125 19.0176L46.5918 12.6602H48.4141L49.5918 16.6035ZM52.8906 15.7715C52.8906 15.1426 53.0117 14.582 53.2539 14.0898C53.4961 13.5977 53.8438 13.2168 54.2969 12.9473C54.7539 12.6777 55.2832 12.543 55.8848 12.543C56.7402 12.543 57.4375 12.8047 57.9766 13.3281C58.5195 13.8516 58.8223 14.5625 58.8848 15.4609L58.8965 15.8945C58.8965 16.8672 58.625 17.6484 58.082 18.2383C57.5391 18.8242 56.8105 19.1172 55.8965 19.1172C54.9824 19.1172 54.252 18.8242 53.7051 18.2383C53.1621 17.6523 52.8906 16.8555 52.8906 15.8477V15.7715ZM54.584 15.8945C54.584 16.4961 54.6973 16.957 54.9238 17.2773C55.1504 17.5938 55.4746 17.752 55.8965 17.752C56.3066 17.752 56.627 17.5957 56.8574 17.2832C57.0879 16.9668 57.2031 16.4629 57.2031 15.7715C57.2031 15.1816 57.0879 14.7246 56.8574 14.4004C56.627 14.0762 56.3027 13.9141 55.8848 13.9141C55.4707 13.9141 55.1504 14.0762 54.9238 14.4004C54.6973 14.7207 54.584 15.2188 54.584 15.8945ZM63.7363 18.3555C63.3184 18.8633 62.7402 19.1172 62.002 19.1172C61.3223 19.1172 60.8027 18.9219 60.4434 18.5312C60.0879 18.1406 59.9062 17.5684 59.8984 16.8145V12.6602H61.5918V16.7559C61.5918 17.416 61.8926 17.7461 62.4941 17.7461C63.0684 17.7461 63.4629 17.5469 63.6777 17.1484V12.6602H65.377V19H63.7832L63.7363 18.3555ZM70.2168 14.248C69.9863 14.2168 69.7832 14.2012 69.6074 14.2012C68.9668 14.2012 68.5469 14.418 68.3477 14.8516V19H66.6543V12.6602H68.2539L68.3008 13.416C68.6406 12.834 69.1113 12.543 69.7129 12.543C69.9004 12.543 70.0762 12.5684 70.2402 12.6191L70.2168 14.248ZM79.7324 15.8887C79.7324 16.8652 79.5098 17.6484 79.0645 18.2383C78.623 18.8242 78.0254 19.1172 77.2715 19.1172C76.6309 19.1172 76.1133 18.8945 75.7188 18.4492V21.4375H74.0254V12.6602H75.5957L75.6543 13.2812C76.0645 12.7891 76.5996 12.543 77.2598 12.543C78.041 12.543 78.6484 12.832 79.082 13.4102C79.5156 13.9883 79.7324 14.7852 79.7324 15.8008V15.8887ZM78.0391 15.7656C78.0391 15.1758 77.9336 14.7207 77.7227 14.4004C77.5156 14.0801 77.2129 13.9199 76.8145 13.9199C76.2832 13.9199 75.918 14.123 75.7188 14.5293V17.125C75.9258 17.543 76.2949 17.752 76.8262 17.752C77.6348 17.752 78.0391 17.0898 78.0391 15.7656ZM84.3496 14.248C84.1191 14.2168 83.916 14.2012 83.7402 14.2012C83.0996 14.2012 82.6797 14.418 82.4805 14.8516V19H80.7871V12.6602H82.3867L82.4336 13.416C82.7734 12.834 83.2441 12.543 83.8457 12.543C84.0332 12.543 84.209 12.5684 84.373 12.6191L84.3496 14.248ZM84.6953 15.7715C84.6953 15.1426 84.8164 14.582 85.0586 14.0898C85.3008 13.5977 85.6484 13.2168 86.1016 12.9473C86.5586 12.6777 87.0879 12.543 87.6895 12.543C88.5449 12.543 89.2422 12.8047 89.7812 13.3281C90.3242 13.8516 90.627 14.5625 90.6895 15.4609L90.7012 15.8945C90.7012 16.8672 90.4297 17.6484 89.8867 18.2383C89.3438 18.8242 88.6152 19.1172 87.7012 19.1172C86.7871 19.1172 86.0566 18.8242 85.5098 18.2383C84.9668 17.6523 84.6953 16.8555 84.6953 15.8477V15.7715ZM86.3887 15.8945C86.3887 16.4961 86.502 16.957 86.7285 17.2773C86.9551 17.5938 87.2793 17.752 87.7012 17.752C88.1113 17.752 88.4316 17.5957 88.6621 17.2832C88.8926 16.9668 89.0078 16.4629 89.0078 15.7715C89.0078 15.1816 88.8926 14.7246 88.6621 14.4004C88.4316 14.0762 88.1074 13.9141 87.6895 13.9141C87.2754 13.9141 86.9551 14.0762 86.7285 14.4004C86.502 14.7207 86.3887 15.2188 86.3887 15.8945ZM93.5371 12.6602V19.3457C93.5371 20.0449 93.3516 20.5879 92.9805 20.9746C92.6094 21.3652 92.0742 21.5605 91.375 21.5605C91.082 21.5605 90.8027 21.5273 90.5371 21.4609V20.1191C90.7402 20.1543 90.918 20.1719 91.0703 20.1719C91.582 20.1719 91.8379 19.9004 91.8379 19.3574V12.6602H93.5371ZM91.7031 11.0195C91.7031 10.7656 91.7871 10.5566 91.9551 10.3926C92.127 10.2285 92.3594 10.1465 92.6523 10.1465C92.9453 10.1465 93.1758 10.2285 93.3438 10.3926C93.5156 10.5566 93.6016 10.7656 93.6016 11.0195C93.6016 11.2773 93.5137 11.4883 93.3379 11.6523C93.166 11.8164 92.9375 11.8984 92.6523 11.8984C92.3672 11.8984 92.1367 11.8164 91.9609 11.6523C91.7891 11.4883 91.7031 11.2773 91.7031 11.0195ZM97.7793 19.1172C96.8496 19.1172 96.0918 18.832 95.5059 18.2617C94.9238 17.6914 94.6328 16.9316 94.6328 15.9824V15.8184C94.6328 15.1816 94.7559 14.6133 95.002 14.1133C95.248 13.6094 95.5957 13.2227 96.0449 12.9531C96.498 12.6797 97.0137 12.543 97.5918 12.543C98.459 12.543 99.1406 12.8164 99.6367 13.3633C100.137 13.9102 100.387 14.6855 100.387 15.6895V16.3809H96.3496C96.4043 16.7949 96.5684 17.127 96.8418 17.377C97.1191 17.627 97.4688 17.752 97.8906 17.752C98.543 17.752 99.0527 17.5156 99.4199 17.043L100.252 17.9746C99.998 18.334 99.6543 18.6152 99.2207 18.8184C98.7871 19.0176 98.3066 19.1172 97.7793 19.1172ZM97.5859 13.9141C97.25 13.9141 96.9766 14.0273 96.7656 14.2539C96.5586 14.4805 96.4258 14.8047 96.3672 15.2266H98.7227V15.0918C98.7148 14.7168 98.6133 14.4277 98.418 14.2246C98.2227 14.0176 97.9453 13.9141 97.5859 13.9141ZM103.99 17.752C104.303 17.752 104.557 17.666 104.752 17.4941C104.947 17.3223 105.049 17.0938 105.057 16.8086H106.645C106.641 17.2383 106.523 17.6328 106.293 17.9922C106.062 18.3477 105.746 18.625 105.344 18.8242C104.945 19.0195 104.504 19.1172 104.02 19.1172C103.113 19.1172 102.398 18.8301 101.875 18.2559C101.352 17.6777 101.09 16.8809 101.09 15.8652V15.7539C101.09 14.7773 101.35 13.998 101.869 13.416C102.389 12.834 103.102 12.543 104.008 12.543C104.801 12.543 105.436 12.7695 105.912 13.2227C106.393 13.6719 106.637 14.2715 106.645 15.0215H105.057C105.049 14.6934 104.947 14.4277 104.752 14.2246C104.557 14.0176 104.299 13.9141 103.979 13.9141C103.584 13.9141 103.285 14.0586 103.082 14.3477C102.883 14.6328 102.783 15.0977 102.783 15.7422V15.918C102.783 16.5703 102.883 17.0391 103.082 17.3242C103.281 17.6094 103.584 17.752 103.99 17.752ZM109.639 11.1016V12.6602H110.723V13.9023H109.639V17.0664C109.639 17.3008 109.684 17.4688 109.773 17.5703C109.863 17.6719 110.035 17.7227 110.289 17.7227C110.477 17.7227 110.643 17.709 110.787 17.6816V18.9648C110.455 19.0664 110.113 19.1172 109.762 19.1172C108.574 19.1172 107.969 18.5176 107.945 17.3184V13.9023H107.02V12.6602H107.945V11.1016H109.639Z" fill="white"/>
<defs>
<filter id="filter0_d_0_567" x="0" y="0" width="128" height="32" filterUnits="userSpaceOnUse" color-interpolation-filters="sRGB">
<feFlood flood-opacity="0" result="BackgroundImageFix"/>
<feColorMatrix in="SourceAlpha" type="matrix" values="0 0 0 0 0 0 0 0 0 0 0 0 0 0 0 0 0 0 127 0" result="hardAlpha"/>
<feOffset dy="2"/>
<feColorMatrix type="matrix" values="0 0 0 0 0 0 0 0 0 0 0 0 0 0 0 0 0 0 0.043 0"/>
<feBlend mode="normal" in2="BackgroundImageFix" result="effect1_dropShadow_0_567"/>
<feBlend mode="normal" in="SourceGraphic" in2="effect1_dropShadow_0_567" result="shape"/>
</filter>
</defs>
</svg>
